<svg width="80.000000" height="83.000000" viewBox="0 0 80 83" fill="none" xmlns="http://www.w3.org/2000/svg" xmlns:xlink="http://www.w3.org/1999/xlink">
	<desc>
			Created with Pixso.
	</desc>
	<defs>
		<clipPath id="clip2_472">
			<rect id="Frame" width="80.000000" height="56.140350" fill="white" fill-opacity="0"/>
		</clipPath>
	</defs>
	<path id="chennai" d="M11.09 72.04Q10.68 72.98 10.68 74.11Q10.68 75.25 11.1 76.2Q11.21 76.44 11.34 76.67Q11.71 77.29 12.21 77.76Q12.63 78.16 13.14 78.44Q13.47 78.63 13.81 78.76Q14.67 79.08 15.65 79.08Q16.85 79.08 17.84 78.63Q18.13 78.5 18.41 78.33Q18.87 78.04 19.24 77.66Q19.83 77.04 20.17 76.17L18.25 76.17Q17.96 76.77 17.48 77.13Q17.35 77.23 17.2 77.32Q16.53 77.69 15.65 77.69Q14.82 77.69 14.15 77.37Q14.04 77.32 13.93 77.25Q13.66 77.1 13.44 76.9Q13.02 76.53 12.74 76Q12.32 75.19 12.32 74.11Q12.32 73.03 12.74 72.22Q13.03 71.68 13.46 71.3Q13.68 71.12 13.93 70.97Q14.02 70.92 14.11 70.87Q14.8 70.54 15.65 70.54Q16.52 70.54 17.19 70.91Q17.19 70.91 17.2 70.92Q17.35 71 17.48 71.1Q17.96 71.46 18.25 72.06L20.17 72.06Q19.83 71.2 19.24 70.58Q18.87 70.19 18.41 69.9Q18.11 69.72 17.8 69.57Q16.82 69.14 15.65 69.14Q14.76 69.14 13.97 69.41Q13.54 69.55 13.15 69.78Q12.62 70.07 12.19 70.48Q11.7 70.94 11.34 71.55Q11.2 71.79 11.09 72.04ZM33.5 73.41L33.5 70.55L37.28 70.55L37.28 69.25L31.9 69.25L31.9 79L37.28 79L37.28 77.69L33.5 77.69L33.5 74.71L36.86 74.71L36.86 73.41L33.5 73.41ZM45.64 79L47.23 79L47.23 69.25L45.64 69.25L45.64 76.5L40.83 69.25L39.24 69.25L39.24 79L40.83 79L40.83 71.73L45.64 79ZM55.73 79L57.33 79L57.33 69.25L55.73 69.25L55.73 76.5L50.93 69.25L49.33 69.25L49.33 79L50.93 79L50.93 71.73L55.73 79ZM61.22 77.01L65.29 77.01L65.99 79L67.67 79L64.19 69.25L62.34 69.25L58.85 79L60.52 79L61.22 77.01ZM29.8 79L29.8 69.26L28.21 69.26L28.21 73.44L23.63 73.44L23.63 69.26L22.03 69.26L22.03 79L23.63 79L23.63 74.74L28.21 74.74L28.21 79L29.8 79ZM70.78 79L70.78 69.26L69.18 69.26L69.18 79L70.78 79ZM63.26 71.18L64.84 75.7L61.67 75.7L63.26 71.18Z" fill="#1A1A1A" fill-opacity="1.000000" fill-rule="evenodd"/>
	<path id="chennai" d="M11.09 72.04Q10.68 72.98 10.68 74.11Q10.68 75.25 11.1 76.2Q11.21 76.44 11.34 76.67Q11.71 77.29 12.21 77.76Q12.63 78.16 13.14 78.44Q13.47 78.63 13.81 78.76Q14.67 79.08 15.65 79.08Q16.85 79.08 17.84 78.63Q18.13 78.5 18.41 78.33Q18.87 78.04 19.24 77.66Q19.83 77.04 20.17 76.17L18.25 76.17Q17.96 76.77 17.48 77.13Q17.35 77.23 17.2 77.32Q16.53 77.69 15.65 77.69Q14.82 77.69 14.15 77.37Q14.04 77.32 13.93 77.25Q13.66 77.1 13.44 76.9Q13.02 76.53 12.74 76Q12.32 75.19 12.32 74.11Q12.32 73.03 12.74 72.22Q13.03 71.68 13.46 71.3Q13.68 71.12 13.93 70.97Q14.02 70.92 14.11 70.87Q14.8 70.54 15.65 70.54Q16.52 70.54 17.19 70.91Q17.19 70.91 17.2 70.92Q17.35 71 17.48 71.1Q17.96 71.46 18.25 72.06L20.17 72.06Q19.83 71.2 19.24 70.58Q18.87 70.19 18.41 69.9Q18.11 69.72 17.8 69.57Q16.82 69.14 15.65 69.14Q14.76 69.14 13.97 69.41Q13.54 69.55 13.15 69.78Q12.62 70.07 12.19 70.48Q11.7 70.94 11.34 71.55Q11.2 71.79 11.09 72.04ZM33.5 73.41L33.5 70.55L37.28 70.55L37.28 69.25L31.9 69.25L31.9 79L37.28 79L37.28 77.69L33.5 77.69L33.5 74.71L36.86 74.71L36.86 73.41L33.5 73.41ZM45.64 79L47.23 79L47.23 69.25L45.64 69.25L45.64 76.5L40.83 69.25L39.24 69.25L39.24 79L40.83 79L40.83 71.73L45.64 79ZM55.73 79L57.33 79L57.33 69.25L55.73 69.25L55.73 76.5L50.93 69.25L49.33 69.25L49.33 79L50.93 79L50.93 71.73L55.73 79ZM61.22 77.01L65.29 77.01L65.99 79L67.67 79L64.19 69.25L62.34 69.25L58.85 79L60.52 79L61.22 77.01ZM29.8 79L29.8 69.26L28.21 69.26L28.21 73.44L23.63 73.44L23.63 69.26L22.03 69.26L22.03 79L23.63 79L23.63 74.74L28.21 74.74L28.21 79L29.8 79ZM70.78 79L70.78 69.26L69.18 69.26L69.18 79L70.78 79ZM63.26 71.18L64.84 75.7L61.67 75.7L63.26 71.18Z" fill="#000000" fill-opacity="0.200000" fill-rule="evenodd"/>
	<g opacity="0.500000">
		<rect id="Frame" width="80.000000" height="56.140350" fill="#FFFFFF" fill-opacity="0"/>
		<g clip-path="url(#clip2_472)">
			<path id="Vector" d="M55.58 51C50.12 51 44.6 51 39.14 51C33.91 51 28.7 51 23.48 51C23.18 51 23.12 50.94 23.12 50.94C23.06 50.88 23 50.82 23 50.53C23 46.34 23 42.09 23 37.84L23 33.93L25.22 33.93L25.22 29.39L26.72 29.33L26.72 24.91L28.58 24.91L28.58 20.43L30.38 20.43L30.38 16.87L30.38 16.76C30.38 16.64 30.38 16.47 30.38 16.35C30.32 16.06 30.38 16 30.44 16C30.5 15.94 30.62 15.94 30.68 15.94C30.74 15.94 30.8 15.94 30.86 15.94C30.92 15.94 31.04 15.94 31.1 15.94C31.16 15.94 31.46 15.94 31.52 15.94L31.82 15.94L31.82 11.46L33.91 11.46L33.91 5L34.58 5L34.64 6.33L36.91 6.33L36.91 5L37.52 5L37.52 6.33L41.54 6.33L41.54 5L42.2 5L42.2 6.33L44.24 6.33L44.36 5L44.96 5L44.96 11.46C44.96 11.46 46.16 11.46 46.34 11.46C46.58 11.46 46.76 11.46 47 11.46L47.06 11.46C47.18 11.46 47.24 11.46 47.24 11.52C47.24 11.52 47.3 11.57 47.3 11.81C47.3 12.56 47.3 13.32 47.3 14.02L47.3 15.88L48.74 15.94L48.74 20.37L50.48 20.37L50.48 24.91L52.4 24.91L52.4 28.05C52.4 29.28 52.52 29.39 53.78 29.39C53.84 29.39 53.84 29.39 53.9 29.39L53.9 33.88L56 33.88C56 34.05 56 34.17 56 34.28L56 38.65C56 42.61 56 46.51 56 50.47C56 50.7 55.94 50.82 55.94 50.88C55.94 50.94 55.82 51 55.58 51ZM34.4 50.3L44.72 50.3L44.72 40.86C44.72 40.28 44.72 39.93 44.54 39.7C44.3 39.41 44 39.41 43.46 39.41L43.28 39.41C43.04 39.41 43.04 39.35 42.98 39.35C42.98 39.35 42.92 39.29 42.92 39.06C42.92 38.71 42.92 38.36 42.92 38.01L42.92 37.25L36.25 37.25L36.25 38.07C36.25 38.48 36.25 38.83 36.25 39.23C36.25 39.41 36.25 39.41 36.25 39.41C36.25 39.41 36.25 39.41 36.14 39.41C35.9 39.41 35.72 39.41 35.54 39.41L34.4 39.41L34.4 50.3ZM45.38 50.3L55.28 50.3L55.28 34.57L23.72 34.57L23.72 50.3L33.8 50.3L33.8 38.83L35.66 38.83L35.66 36.73L43.64 36.73L43.64 38.83L45.38 38.83L45.38 50.3ZM43.04 31.26C43.1 31.9 43.22 32.48 43.22 33.12C43.28 33.82 43.76 33.93 44.12 33.93C44.66 33.93 45.14 33.93 45.56 33.93L47.3 33.93L52.34 33.93C52.52 33.93 52.76 33.93 52.94 33.76C53.06 33.64 53.12 33.47 53.12 33.24C53.12 32.59 53.12 31.95 53.12 31.31L53.12 30.15L42.92 30.15C42.92 30.09 43.04 30.96 43.04 31.26ZM25.94 33.88L35.41 33.88L35.9 30.09L25.94 30.09L25.94 33.88ZM36.08 33.76L42.68 33.76L42.2 30.03L36.5 30.03L36.08 33.76ZM28.1 25.55C27.86 25.55 27.68 25.61 27.56 25.72C27.38 25.9 27.38 26.13 27.38 26.31C27.38 27.06 27.38 27.82 27.38 28.52C27.38 28.69 27.38 28.98 27.56 29.16C27.68 29.28 27.92 29.33 28.16 29.33C29.12 29.33 30.08 29.33 31.04 29.33C32.41 29.33 33.86 29.33 35.24 29.33C35.54 29.33 35.96 29.04 36.02 28.75C36.14 28.05 36.2 27.35 36.25 26.66L36.38 25.67L36.14 25.61L36.02 25.55C35.96 25.55 35.9 25.49 35.78 25.49L33.2 25.49C31.46 25.55 29.78 25.55 28.1 25.55ZM42.5 26.66C42.56 27.41 42.68 28.11 42.8 28.81C42.86 29.1 43.34 29.39 43.64 29.39C44.96 29.39 46.34 29.39 47.66 29.39L50.9 29.39C51.02 29.39 51.14 29.39 51.26 29.33L51.44 29.33L51.68 29.28L51.68 25.55L42.38 25.55L42.5 26.66ZM39.8 25.55C39.08 25.55 38.3 25.55 37.58 25.55C37.28 25.55 37.04 25.84 36.98 26.07C36.86 26.77 36.8 27.53 36.68 28.29L36.56 29.28L42.08 29.28L41.66 25.49L39.8 25.55ZM29.9 21.07C29.66 21.07 29.3 21.36 29.3 21.65C29.3 22.41 29.3 23.16 29.3 23.86L29.3 24.85L36.5 24.85L36.91 21.01L34.46 21.01C32.9 21.07 31.4 21.07 29.9 21.07ZM39.38 21.07C39.02 21.07 38.59 21.07 38.24 21.07C37.93 21.07 37.58 21.36 37.58 21.65C37.46 22.35 37.4 23.05 37.34 23.8L37.22 24.85L41.6 24.85L41.48 23.74C41.42 23.05 41.3 22.35 41.24 21.65C41.18 21.36 40.82 21.07 40.58 21.07C40.16 21.07 39.8 21.07 39.38 21.07ZM42.32 24.85L49.82 24.85L49.82 21.12L41.84 21.12L42.32 24.85ZM31.04 20.43L33.5 20.43C34.46 20.43 35.36 20.43 36.32 20.43C36.56 20.43 36.98 20.19 36.98 19.9C37.09 19.14 37.16 18.45 37.22 17.69L37.34 16.7L31.04 16.7L31.04 20.43ZM39.38 16.64C39.08 16.64 38.78 16.64 38.48 16.64C38.24 16.64 38.06 16.93 38 17.11C37.88 17.86 37.82 18.62 37.75 19.38L37.64 20.37L41.06 20.37L40.93 19.2C40.88 18.5 40.75 17.86 40.7 17.22C40.7 17.11 40.58 16.7 40.22 16.7C39.98 16.64 39.68 16.64 39.38 16.64ZM41.78 20.37L48.08 20.37L48.08 16.64L41.3 16.64L41.78 20.37ZM32.54 15.88L34.75 15.88C35.48 15.88 36.2 15.88 36.91 15.88C37.16 15.88 37.58 15.65 37.64 15.36C37.75 14.6 37.82 13.85 37.88 13.09L38 12.1L32.54 12.1L32.54 15.88ZM40.88 13.03C40.93 13.85 41.06 14.6 41.18 15.36C41.24 15.65 41.6 15.83 41.84 15.83C42.68 15.83 43.52 15.83 44.36 15.83L46.64 15.83L46.64 14.66C46.64 14.02 46.64 13.44 46.64 12.8C46.64 12.51 46.58 12.33 46.46 12.16C46.28 11.98 45.98 11.92 45.8 11.92C45.38 11.92 45.08 11.92 44.72 11.92L43.04 11.92L40.82 11.92L40.88 13.03ZM39.5 12.16C39.5 12.16 38.72 12.16 38.66 12.62C38.54 13.38 38.48 14.14 38.36 14.95L38.24 15.94L40.58 15.94L40.46 14.89C40.4 14.14 40.28 13.44 40.22 12.68C40.16 12.33 39.74 12.16 39.5 12.16ZM40.09 11.4C41.18 11.4 42.32 11.4 43.4 11.46L43.46 11.46C43.64 11.46 43.94 11.46 44.12 11.23C44.3 10.99 44.3 10.76 44.3 10.53C44.3 10.06 44.3 9.59 44.3 9.13C44.3 8.95 44.3 8.72 44.3 8.55C44.3 7.96 44.3 7.62 44.18 7.38C44 6.97 43.52 6.97 43.34 6.97C43.16 6.97 42.86 6.97 42.56 7.03C42.44 7.03 42.38 7.09 42.32 7.15L42.26 7.21L42.14 7.27L42.14 10L36.8 10L36.8 7.09L34.52 7.09L34.52 11.4L35.06 11.46C35.24 11.46 35.41 11.46 35.59 11.46C36.2 11.46 36.74 11.46 37.34 11.46C38.24 11.46 39.08 11.46 39.98 11.46L40.09 11.46L40.09 11.4ZM37.52 9.36L41.42 9.36L41.42 7.09L37.52 7.09L37.52 9.36Z" fill="#1A1A1A" fill-opacity="1.000000" fill-rule="nonzero"/>
			<path id="Vector" d="M49.64 50.38C49.5 50.38 49.36 50.38 49.07 50.31L49.07 42.63L49.78 42.63C49.78 42.63 49.78 47.68 49.78 49.53C49.78 49.88 49.78 50.31 49.71 50.38C49.78 50.38 49.71 50.38 49.64 50.38Z" fill="#1A1A1A" fill-opacity="1.000000" fill-rule="nonzero"/>
			<path id="Vector" d="M54.29 50.38C54.14 50.38 54.07 50.38 54.07 50.38C54.07 50.38 54.07 50.1 54.07 49.81L54.07 42.63L54.79 42.63L54.79 50.38L54.71 50.38C54.5 50.38 54.36 50.38 54.29 50.38Z" fill="#1A1A1A" fill-opacity="1.000000" fill-rule="nonzero"/>
			<path id="Vector" d="M29.63 42.92L30.35 42.92L30.35 50.31L29.63 50.31L29.63 42.92Z" fill="#1A1A1A" fill-opacity="1.000000" fill-rule="evenodd"/>
			<path id="Vector" d="M24.35 50.38C24.28 50.38 24.28 50.38 24.28 50.38C24.28 50.38 24.28 50.31 24.28 50.17C24.28 48.74 24.28 47.32 24.28 45.9L24.28 42.85L24.49 42.78C24.56 42.78 24.63 42.78 24.7 42.78C24.78 42.78 24.85 42.78 24.92 42.85C24.92 42.85 24.99 42.99 24.99 43.34C24.92 44.91 24.99 46.47 24.99 47.96C24.99 48.53 24.99 50.31 24.99 50.31L24.7 50.31C24.63 50.38 24.49 50.38 24.35 50.38Z" fill="#1A1A1A" fill-opacity="1.000000" fill-rule="nonzero"/>
		</g>
	</g>
</svg>
